<svg width="55" height="55" viewBox="0 0 55 55" fill="none" xmlns="http://www.w3.org/2000/svg">
<path d="M53.4274 5.71522L53.3366 5.65845L41.8511 0L29.4544 16.5289L35.1578 24.1339C34.9872 27.002 33.7709 29.7079 31.7393 31.7395C29.7077 33.7711 27.0017 34.9873 24.1337 35.158L16.5288 29.4545L0 41.851L5.61136 53.2404L5.65858 53.3366L5.71548 53.4273C6.01493 53.9098 6.43289 54.3076 6.92957 54.5829C7.42625 54.8582 7.98513 55.0018 8.55299 55H11.5166C17.227 55 22.8814 53.8753 28.157 51.69C33.4327 49.5048 38.2263 46.3018 42.2641 42.264C46.3019 38.2261 49.5048 33.4326 51.69 28.1569C53.8753 22.8813 55 17.2268 55 11.5165V8.55273C55.0018 7.98487 54.8582 7.426 54.583 6.92932C54.3077 6.43264 53.9099 6.01467 53.4274 5.71522ZM50.7556 11.5165C50.7556 33.153 33.153 50.7556 11.5166 50.7556H9.11856L5.36412 43.1338L16.5295 34.7598L22.7459 39.4218H23.4532C27.6872 39.4171 31.7463 37.7331 34.7402 34.7392C37.734 31.7454 39.418 27.6862 39.4228 23.4523V22.7449L34.7607 16.5288L43.1338 5.36399L50.7556 9.11909V11.5165Z" fill="white"/>
</svg>
