<svg width="67" height="67" viewBox="0 0 67 67" fill="none" xmlns="http://www.w3.org/2000/svg">
<path d="M67 33.5C67 14.9933 51.9941 0 33.5 0C14.9933 0 0 14.9933 0 33.5C0 50.2165 12.2463 64.0771 28.2656 66.5875V43.1857H19.7587V33.5021H28.2656V26.1174C28.2656 17.7236 33.2592 13.088 40.914 13.088C44.5801 13.088 48.418 13.7413 48.418 13.7413V21.9844H44.1865C40.0325 21.9844 38.7344 24.5702 38.7344 27.2188V33.5H48.0243L46.5315 43.1836H38.7344V66.5854C54.7411 64.075 67 50.2144 67 33.4979V33.5Z" fill="white"/>
</svg>
