<svg width="56" height="56" viewBox="0 0 56 56" fill="none" xmlns="http://www.w3.org/2000/svg">
<path d="M27.7519 0C20.2076 0 19.2674 0.0364289 16.315 0.161328C13.3503 0.307044 11.345 0.766742 9.5756 1.45369C7.75069 2.16839 6.19639 3.11727 4.66117 4.66117C3.11554 6.19639 2.15798 7.75069 1.45369 9.5756C0.766742 11.345 0.307044 13.3503 0.161328 16.315C0.0277554 19.2692 0 20.2076 0 27.7519C0 35.2962 0.0364289 36.2364 0.161328 39.1888C0.307044 42.1448 0.766742 44.1588 1.45369 45.9282C2.16839 47.7531 3.11727 49.3074 4.66117 50.8426C6.19639 52.3883 7.75069 53.3458 9.5756 54.0501C11.345 54.7284 13.359 55.1967 16.315 55.3425C19.2692 55.476 20.2076 55.5038 27.7519 55.5038C35.2962 55.5038 36.2364 55.4674 39.1888 55.3425C42.1448 55.1967 44.1588 54.7266 45.9282 54.0501C47.7531 53.3354 49.3074 52.3865 50.8426 50.8426C52.3883 49.3074 53.3458 47.7618 54.0501 45.9282C54.7284 44.1588 55.1968 42.1448 55.3425 39.1888C55.476 36.2346 55.5038 35.2962 55.5038 27.7519C55.5038 20.2076 55.4674 19.2674 55.3425 16.315C55.1968 13.359 54.7266 11.3346 54.0501 9.5756C53.3354 7.75069 52.3865 6.19639 50.8426 4.66117C49.3074 3.11554 47.7618 2.15798 45.9282 1.45369C44.1588 0.766742 42.1448 0.307044 39.1888 0.161328C36.2346 0.0277554 35.2962 0 27.7519 0ZM27.7519 4.99597C35.1608 4.99597 36.0455 5.03239 38.9737 5.15729C41.6747 5.28393 43.1457 5.73495 44.1224 6.11659C45.4251 6.62139 46.3358 7.21813 47.3212 8.19304C48.2874 9.15927 48.8841 10.0804 49.3889 11.3832C49.7706 12.3598 50.2216 13.8308 50.3482 16.5318C50.4731 19.46 50.5096 20.3464 50.5096 27.7536C50.5096 35.1608 50.4731 36.0473 50.3378 38.9755C50.1921 41.6764 49.7411 43.1475 49.3612 44.1241C48.8356 45.4269 48.2492 46.3376 47.2813 47.3229C46.3046 48.2891 45.3748 48.8859 44.0825 49.3907C43.118 49.7723 41.6261 50.2233 38.9148 50.35C35.971 50.4749 35.1036 50.5113 27.6756 50.5113C20.2475 50.5113 19.3819 50.4749 16.4346 50.3396C13.7337 50.1938 12.2436 49.7428 11.2669 49.3629C9.94857 48.8373 9.04478 48.251 8.07681 47.283C7.10017 46.3064 6.47914 45.3766 6.00036 44.0842C5.61179 43.1197 5.1677 41.6278 5.02372 38.9165C4.92484 36.0074 4.87801 35.1053 4.87801 27.712C4.87801 20.3221 4.92484 19.4183 5.02372 16.4728C5.1677 13.7615 5.61179 12.2731 6.00036 11.3051C6.47914 9.98499 7.1019 9.08294 8.07681 8.1063C9.04305 7.14007 9.94857 6.51557 11.2669 6.02638C12.2436 5.64648 13.6973 5.19546 16.4086 5.06015C19.3524 4.95433 20.2198 4.91617 27.6374 4.91617L27.7519 4.99597ZM27.7519 13.5082C19.8746 13.5082 13.5047 19.8867 13.5047 27.7554C13.5047 35.6327 19.8833 42.0025 27.7519 42.0025C35.6292 42.0025 41.9991 35.624 41.9991 27.7554C41.9991 19.878 35.6205 13.5082 27.7519 13.5082ZM27.7519 37.0066C22.638 37.0066 18.5007 32.8693 18.5007 27.7554C18.5007 22.6414 22.638 18.5042 27.7519 18.5042C32.8658 18.5042 37.0031 22.6414 37.0031 27.7554C37.0031 32.8693 32.8658 37.0066 27.7519 37.0066ZM45.9039 12.9392C45.9039 14.7832 44.4034 16.2716 42.5681 16.2716C40.7241 16.2716 39.2357 14.7815 39.2357 12.9392C39.2357 11.1056 40.7345 9.61376 42.5681 9.61376C44.4016 9.61376 45.9039 11.1056 45.9039 12.9392Z" fill="white"/>
</svg>
