<svg width="49" height="56" viewBox="0 0 49 56" fill="none" xmlns="http://www.w3.org/2000/svg">
<path d="M25.3304 0.0468334C28.3572 0 31.3667 0.0277531 34.3727 0C34.5548 3.54026 35.828 7.14643 38.4194 9.64942C41.0057 12.2148 44.6639 13.3891 48.2232 13.7864V23.0993C44.8877 22.99 41.5365 22.2962 38.5096 20.8599C37.1914 20.2633 35.9633 19.4948 34.7612 18.7091C34.7456 25.467 34.789 32.2162 34.7179 38.9463C34.5375 42.1796 33.4707 45.3972 31.5904 48.0615C28.5654 52.4968 23.3148 55.3883 17.922 55.4785C14.6142 55.6676 11.3098 54.7656 8.49117 53.1039C3.81997 50.3494 0.532963 45.307 0.0542211 39.8951C-0.00128512 38.7382 -0.0203654 37.5829 0.026468 36.4537C0.442765 32.0531 2.61965 27.8433 5.99859 24.9795C9.82853 21.644 15.1936 20.0551 20.2169 20.9952C20.2637 24.421 20.1267 27.8433 20.1267 31.2691C17.8318 30.5267 15.1502 30.7349 13.145 32.1277C11.681 33.0765 10.5692 34.5301 9.98984 36.1745C9.5111 37.347 9.64813 38.6497 9.67588 39.8951C10.2257 43.6904 13.8753 46.8802 17.7711 46.5351C20.3539 46.5073 22.8291 45.0086 24.1752 42.8144C24.6105 42.046 25.0979 41.2602 25.124 40.3565C25.3512 36.2196 25.261 32.1 25.2888 27.963C25.3078 18.6397 25.261 9.3424 25.3321 0.048568L25.3304 0.0468334Z" fill="white"/>
</svg>
